<?xml version="1.0" encoding="UTF-8" standalone="no"?>
<svg
   version="1.0"
   width="220.000000pt"
   height="229.000000pt"
   viewBox="0 0 220.000000 229.000000"
   preserveAspectRatio="xMidYMid meet"
   id="svg4"
   sodipodi:docname="images.svg"
   inkscape:version="1.3.2 (091e20e, 2023-11-25, custom)"
   xmlns:inkscape="http://www.inkscape.org/namespaces/inkscape"
   xmlns:sodipodi="http://sodipodi.sourceforge.net/DTD/sodipodi-0.dtd"
   xmlns:xlink="http://www.w3.org/1999/xlink"
   xmlns="http://www.w3.org/2000/svg"
   xmlns:svg="http://www.w3.org/2000/svg">
  <defs
     id="defs4">
    <linearGradient
       id="swatch40"
       inkscape:swatch="solid">
      <stop
         style="stop-color:#000000;stop-opacity:1;"
         offset="0"
         id="stop40" />
    </linearGradient>
    <linearGradient
       id="swatch39"
       inkscape:swatch="solid">
      <stop
         style="stop-color:#000000;stop-opacity:1;"
         offset="0"
         id="stop39" />
    </linearGradient>
    <linearGradient
       id="swatch28"
       inkscape:swatch="solid">
      <stop
         style="stop-color:#000000;stop-opacity:1;"
         offset="0"
         id="stop29" />
    </linearGradient>
    <linearGradient
       id="swatch23"
       inkscape:swatch="solid">
      <stop
         style="stop-color:#000000;stop-opacity:1;"
         offset="0"
         id="stop23" />
    </linearGradient>
    <linearGradient
       id="swatch19"
       inkscape:swatch="solid">
      <stop
         style="stop-color:#000000;stop-opacity:1;"
         offset="0"
         id="stop19" />
    </linearGradient>
    <linearGradient
       id="swatch55"
       inkscape:swatch="solid">
      <stop
         style="stop-color:#000000;stop-opacity:1;"
         offset="0"
         id="stop55" />
    </linearGradient>
    <linearGradient
       id="swatch38"
       inkscape:swatch="solid">
      <stop
         style="stop-color:#000000;stop-opacity:1;"
         offset="0"
         id="stop38" />
    </linearGradient>
    <linearGradient
       id="swatch37"
       inkscape:swatch="solid">
      <stop
         style="stop-color:#000000;stop-opacity:1;"
         offset="0"
         id="stop37" />
    </linearGradient>
    <linearGradient
       id="swatch36"
       inkscape:swatch="solid">
      <stop
         style="stop-color:#000000;stop-opacity:1;"
         offset="0"
         id="stop36" />
    </linearGradient>
    <linearGradient
       id="swatch32"
       inkscape:swatch="solid">
      <stop
         style="stop-color:#000000;stop-opacity:1;"
         offset="0"
         id="stop32" />
    </linearGradient>
    <linearGradient
       id="swatch31"
       inkscape:swatch="solid">
      <stop
         style="stop-color:#000000;stop-opacity:1;"
         offset="0"
         id="stop31" />
    </linearGradient>
    <linearGradient
       id="swatch30"
       inkscape:swatch="solid">
      <stop
         style="stop-color:#000000;stop-opacity:1;"
         offset="0"
         id="stop30" />
    </linearGradient>
    <linearGradient
       id="linearGradient28"
       inkscape:swatch="solid">
      <stop
         style="stop-color:#000000;stop-opacity:1;"
         offset="0"
         id="stop28" />
    </linearGradient>
    <linearGradient
       id="swatch27"
       inkscape:swatch="solid">
      <stop
         style="stop-color:#000000;stop-opacity:1;"
         offset="0"
         id="stop27" />
    </linearGradient>
    <linearGradient
       id="swatch26"
       inkscape:swatch="solid">
      <stop
         style="stop-color:#000000;stop-opacity:1;"
         offset="0"
         id="stop26" />
    </linearGradient>
    <linearGradient
       id="swatch25">
      <stop
         style="stop-color:#000000;stop-opacity:1;"
         offset="0"
         id="stop25" />
    </linearGradient>
    <linearGradient
       id="swatch24"
       inkscape:swatch="solid">
      <stop
         style="stop-color:#000000;stop-opacity:1;"
         offset="0"
         id="stop24" />
    </linearGradient>
    <linearGradient
       id="swatch20"
       inkscape:swatch="solid">
      <stop
         style="stop-color:#000000;stop-opacity:1;"
         offset="0"
         id="stop20" />
    </linearGradient>
    <linearGradient
       inkscape:collect="always"
       xlink:href="#swatch24"
       id="linearGradient24"
       x1="134.73657"
       y1="38.123963"
       x2="149.77732"
       y2="38.123963"
       gradientUnits="userSpaceOnUse" />
    <linearGradient
       inkscape:collect="always"
       xlink:href="#swatch25"
       id="linearGradient25"
       x1="140.05628"
       y1="43.577241"
       x2="146.37626"
       y2="43.577241"
       gradientUnits="userSpaceOnUse" />
    <linearGradient
       inkscape:collect="always"
       xlink:href="#swatch26"
       id="linearGradient26"
       x1="136.027"
       y1="43.988616"
       x2="138.62931"
       y2="43.988616"
       gradientUnits="userSpaceOnUse" />
    <linearGradient
       inkscape:collect="always"
       xlink:href="#linearGradient28"
       id="linearGradient29"
       gradientUnits="userSpaceOnUse"
       gradientTransform="matrix(0.88962193,0,0,0.92491087,11.816277,1.4283006)"
       x1="107.3684"
       y1="20.519295"
       x2="109.79413"
       y2="20.519295" />
    <linearGradient
       inkscape:collect="always"
       xlink:href="#swatch30"
       id="linearGradient30"
       x1="709"
       y1="1139.5008"
       x2="1502.025"
       y2="1139.5008"
       gradientUnits="userSpaceOnUse" />
    <linearGradient
       inkscape:collect="always"
       xlink:href="#swatch31"
       id="linearGradient31"
       x1="109.70861"
       y1="50.194235"
       x2="190.13448"
       y2="50.194235"
       gradientUnits="userSpaceOnUse" />
    <linearGradient
       inkscape:collect="always"
       xlink:href="#swatch32"
       id="linearGradient32"
       x1="140.95152"
       y1="67.42628"
       x2="179.48968"
       y2="67.42628"
       gradientUnits="userSpaceOnUse" />
    <linearGradient
       inkscape:collect="always"
       xlink:href="#swatch36"
       id="linearGradient36"
       x1="135.87034"
       y1="26.37549"
       x2="138.17608"
       y2="26.37549"
       gradientUnits="userSpaceOnUse" />
    <linearGradient
       inkscape:collect="always"
       xlink:href="#swatch37"
       id="linearGradient37"
       x1="186.7707"
       y1="51.081859"
       x2="188.73369"
       y2="51.081859"
       gradientUnits="userSpaceOnUse" />
    <linearGradient
       inkscape:collect="always"
       xlink:href="#swatch38"
       id="linearGradient38"
       x1="184.13842"
       y1="47.812831"
       x2="187.87006"
       y2="47.812831"
       gradientUnits="userSpaceOnUse" />
    <linearGradient
       inkscape:collect="always"
       xlink:href="#swatch55"
       id="linearGradient55"
       x1="122.05534"
       y1="14.670951"
       x2="129.40997"
       y2="14.670951"
       gradientUnits="userSpaceOnUse" />
    <linearGradient
       inkscape:collect="always"
       xlink:href="#swatch19"
       id="linearGradient19"
       x1="150.77027"
       y1="94.798165"
       x2="164.7432"
       y2="94.798165"
       gradientUnits="userSpaceOnUse" />
    <linearGradient
       inkscape:collect="always"
       xlink:href="#swatch23"
       id="linearGradient23"
       x1="102.15779"
       y1="171.31392"
       x2="114.35766"
       y2="171.31392"
       gradientUnits="userSpaceOnUse" />
    <linearGradient
       inkscape:collect="always"
       xlink:href="#swatch28"
       id="linearGradient33"
       x1="100.96072"
       y1="199.36454"
       x2="115.73617"
       y2="199.36454"
       gradientUnits="userSpaceOnUse" />
    <linearGradient
       inkscape:collect="always"
       xlink:href="#swatch39"
       id="linearGradient39"
       x1="103.59132"
       y1="186.53305"
       x2="112.9866"
       y2="186.53305"
       gradientUnits="userSpaceOnUse" />
    <linearGradient
       inkscape:collect="always"
       xlink:href="#swatch40"
       id="linearGradient40"
       x1="101.33407"
       y1="199.37025"
       x2="115.36033"
       y2="199.37025"
       gradientUnits="userSpaceOnUse" />
  </defs>
  <sodipodi:namedview
     id="namedview4"
     pagecolor="#ffffff"
     bordercolor="#000000"
     borderopacity="0.25"
     inkscape:showpageshadow="2"
     inkscape:pageopacity="0.0"
     inkscape:pagecheckerboard="0"
     inkscape:deskcolor="#d1d1d1"
     inkscape:document-units="pt"
     inkscape:zoom="1.6670306"
     inkscape:cx="173.36215"
     inkscape:cy="152.66667"
     inkscape:window-width="1360"
     inkscape:window-height="705"
     inkscape:window-x="-8"
     inkscape:window-y="-8"
     inkscape:window-maximized="1"
     inkscape:current-layer="svg4" />
  <rect
     style="opacity:1;fill:#552200;fill-opacity:1;stroke-width:0.858997;stroke-dasharray:none"
     id="rect55"
     width="10.657307"
     height="2.5450287"
     x="88.956703"
     y="7.0385952" />
  <rect
     style="opacity:1;fill:#552200;fill-opacity:1;stroke-width:0.858997;stroke-dasharray:none"
     id="rect56"
     width="7.1181269"
     height="1.7099411"
     x="90.945015"
     y="5.3684196" />
  <rect
     style="fill:#552200;fill-opacity:1;stroke-width:0.75;opacity:1"
     id="rect54"
     width="17.854967"
     height="2.1076019"
     x="108.48186"
     y="7.6748524" />
  <g
     transform="translate(0.000000,229.000000) scale(0.100000,-0.100000)"
     fill="#000000"
     stroke="none"
     id="g4"
     style="stroke:url(#linearGradient30)">
    <path
       d="M920 2243 c-28 -10 -60 -46 -60 -68 0 -11 7 -31 16 -43 15 -21 14 -25 -9 -55 -53 -70 -71 -119 -72 -192 0 -97 22 -138 105 -193 36 -24 66 -48 68 -52 2 -5 -13 -16 -33 -25 -19 -10 -45 -32 -57 -49 -11 -17 -38 -49 -59 -71 -21 -22 -54 -70 -73 -107 -31 -60 -35 -77 -37 -150 0 -46 2 -94 5 -108 18 -66 33 -216 24 -227 -6 -7 -8 -19 -5 -27 3 -8 1 -16 -6 -19 -6 -2 -10 -21 -9 -48 2 -36 9 -50 38 -77 27 -26 43 -33 64 -30 l27 4 -5 -88 -5 -88 42 -53 c22 -30 41 -63 41 -75 0 -11 12 -29 26 -39 23 -17 26 -26 27 -86 1 -37 -2 -68 -8 -70 -6 -2 -4 -15 5 -32 11 -21 12 -29 3 -32 -9 -3 -9 -10 3 -28 15 -23 14 -24 -13 -39 -16 -8 -35 -22 -42 -30 -12 -14 11 -16 243 -16 149 0 256 4 256 9 0 5 3 16 6 25 4 10 -8 23 -34 41 -32 21 -41 34 -44 63 -3 20 0 52 6 71 8 28 7 35 -7 46 -21 15 -21 43 -2 69 18 24 19 58 3 74 -8 8 -6 16 11 29 22 19 51 105 51 157 0 16 -12 59 -27 95 -35 89 -42 259 -13 367 13 49 17 87 13 127 -3 32 0 83 7 117 l13 60 -33 53 c-19 28 -47 76 -62 105 -16 28 -34 52 -39 52 -5 0 -9 6 -9 13 0 7 22 20 49 30 101 36 171 157 137 239 -8 18 -17 58 -21 89 l-7 56 35 7 c50 9 66 67 28 105 -17 17 -24 18 -50 8 -28 -10 -33 -9 -63 20 -78 75 -212 99 -310 55 -27 -11 -48 -17 -48 -11 0 5 -9 18 -20 29 -20 20 -41 24 -70 13z m66 -35 c13 -46 22 -48 81 -21 47 22 65 25 122 21 78 -6 153 -36 176 -71 15 -24 15 -27 -4 -46 -20 -20 -41 -79 -41 -119 0 -29 24 -87 40 -97 7 -5 25 -8 39 -9 23 -1 26 -6 29 -38 4 -46 -27 -109 -70 -142 -88 -66 -264 -75 -374 -18 -147 75 -185 148 -152 294 10 42 23 64 63 104 27 28 62 59 77 70 l28 19 -20 33 c-22 35 -40 40 -64 16 -9 -8 -16 -11 -16 -5 0 14 30 30 57 31 14 0 24 -8 29 -22z m-16 -52 c-6 -6 -20 -5 -36 3 -26 11 -26 12 -8 32 l18 20 18 -23 c10 -14 13 -27 8 -32z m418 -118 c-7 -4 -19 -8 -25 -8 -21 0 -16 -81 7 -118 13 -21 16 -32 8 -30 -41 14 -50 147 -13 188 l19 21 8 -22 c6 -15 4 -25 -4 -31z m85 22 c-8 -29 -21 -25 -15 5 2 14 8 23 12 20 5 -3 6 -14 3 -25z m-63 -119 c0 -5 -7 -14 -15 -21 -12 -10 -15 -10 -15 2 0 8 3 18 7 21 9 10 23 9 23 -2z m5 -30 c3 -5 1 -12 -5 -16 -5 -3 -10 1 -10 9 0 18 6 21 15 7z m-182 -318 c-12 -34 -26 -43 -67 -43 l-41 1 55 29 c30 16 56 29 57 30 1 0 0 -8 -4 -17z m-238 -21 c6 -17 -12 -33 -30 -25 -17 6 -8 40 10 40 8 0 17 -7 20 -15z m68 -45 c7 -19 -18 -38 -32 -24 -6 6 -11 17 -11 24 0 17 36 17 43 0z m221 -12 c6 -16 -16 -26 -33 -16 -16 10 -3 41 14 35 7 -3 16 -12 19 -19z m-150 -29 c-3 -7 -11 -13 -19 -13 -19 0 -29 28 -13 38 16 10 38 -8 32 -25z m79 3 c-6 -21 -39 -26 -45 -7 -6 18 13 36 33 31 11 -3 15 -12 12 -24z m-358 -461 c-4 -35 -9 -70 -10 -78 -2 -15 -61 -38 -71 -27 -11 10 -13 80 -3 99 8 15 76 68 87 68 2 0 1 -28 -3 -62z m-17 -149 c-7 -5 -20 -8 -28 -8 -8 0 -4 5 9 10 13 5 22 12 19 14 -3 3 -17 1 -31 -4 -14 -5 -28 -7 -31 -3 -4 3 10 11 31 17 31 9 39 8 41 -3 2 -8 -2 -18 -10 -23z m32 -32 c0 -18 -5 -23 -27 -22 -36 0 -44 -36 -14 -57 l21 -15 -20 -18 c-17 -16 -24 -16 -44 -5 -13 7 -27 21 -30 32 -7 29 33 85 69 96 44 14 45 14 45 -11z m225 -777 c3 -5 1 -10 -4 -10 -6 0 -11 5 -11 10 0 6 2 10 4 10 3 0 8 -4 11 -10z m165 -18 c9 -4 0 -8 -20 -10 -39 -4 -113 15 -106 27 5 7 94 -5 126 -17z"
       id="path1"
       style="stroke:url(#linearGradient30)" />
    <path
       d="M1054 2124 c-54 -26 -96 -133 -80 -199 6 -24 49 -53 74 -49 6 1 19 2 27 3 27 2 94 72 104 107 12 42 5 101 -15 131 -17 27 -63 30 -110 7z m86 -4 c16 0 32 -61 27 -102 -7 -51 -32 -87 -80 -113 -34 -19 -39 -19 -64 -4 -26 14 -28 20 -27 77 1 50 6 67 28 97 20 25 33 34 46 30 11 -3 20 0 24 11 4 10 12 14 22 10 9 -3 19 -6 24 -6z"
       id="path2"
       style="stroke:url(#linearGradient30)" />
    <path
       d="M1056 2071 c-14 -16 -46 -99 -46 -120 0 -8 50 -31 66 -31 28 0 45 47 48 130 1 30 -2 35 -25 38 -15 2 -32 -5 -43 -17z m42 -95 c4 -20 -15 -46 -34 -46 -18 0 -19 56 -1 63 19 8 32 2 35 -17z m-58 -16 c0 -5 -4 -10 -10 -10 -5 0 -10 5 -10 10 0 6 5 10 10 10 6 0 10 -4 10 -10z"
       id="path3"
       style="stroke:url(#linearGradient30)" />
    <path
       d="M1185 1909 c-67 -20 -120 -64 -141 -116 -21 -48 -17 -69 16 -97 40 -33 101 -49 173 -44 131 10 174 114 95 233 -34 52 -48 54 -143 24z m65 -24 c7 -9 24 -14 39 -13 21 2 29 -4 43 -32 52 -102 0 -170 -129 -170 -65 0 -138 30 -148 61 -16 51 39 127 110 153 52 19 70 19 85 1z"
       id="path4"
       style="stroke:url(#linearGradient30)" />
  </g>
  <path
     style="fill:#552200;fill-opacity:0.238636;stroke-width:0.599869"
     d="m 151.76686,81.084395 c -8.28319,-2.49548 -11.38199,-5.249291 -10.95565,-9.735965 0.79549,-8.371511 10.84098,-17.384861 20.48498,-18.380209 2.95681,-0.305169 3.49995,-0.175246 5.1811,1.239345 1.42285,1.197254 2.53547,1.580253 4.59067,1.580253 2.25008,0 3.00391,0.311795 4.42069,1.828467 2.3596,2.525957 4.17212,7.683143 4.17212,11.870949 0,4.941179 -2.04481,7.94334 -7.11237,10.442259 -3.47292,1.712569 -4.40943,1.896325 -10.49771,2.059776 -5.12396,0.137562 -7.52492,-0.0737 -10.28383,-0.904875 z"
     id="path5"
     transform="scale(0.75)" />
  <path
     style="fill:#ffff00;fill-opacity:1;stroke-width:0.106043"
     d="m 128.72767,99.003264 c -0.29621,-0.137932 -0.64202,-0.382292 -0.76845,-0.543022 -1.04148,-1.324029 -0.0356,-4.183053 1.61817,-4.599485 0.94892,-0.238942 2.26528,0.48368 2.85424,1.566856 1.2076,2.220936 -1.33729,4.677677 -3.70396,3.575651 z"
     id="path6"
     transform="scale(0.75)" />
  <path
     style="fill:#ffff00;fill-opacity:1;stroke-width:0.106043"
     d="m 138.17385,105.32075 c -1.34918,-0.63335 -2.50868,-3.31361 -1.87187,-4.32696 0.49905,-0.79414 2.11665,-1.109416 3.51418,-0.68493 2.12822,0.64643 2.67358,2.74806 1.11701,4.30463 -0.81374,0.81374 -1.92546,1.09869 -2.75932,0.70726 z"
     id="path7"
     transform="scale(0.75)" />
  <path
     style="fill:#ffff00;fill-opacity:1;stroke-width:0.106043"
     d="m 148.08817,108.80694 c -0.86095,-0.26189 -1.67885,-1.06595 -1.96712,-1.93384 -0.42527,-1.28037 7.6e-4,-2.50388 1.06203,-3.05003 2.02227,-1.04069 4.72931,1.24981 3.93504,3.32956 -0.42691,1.11786 -1.98925,1.97088 -3.02995,1.65431 z"
     id="path8"
     transform="scale(0.75)" />
  <path
     style="fill:#ffff00;fill-opacity:1;stroke-width:0.106043"
     d="m 156.90981,108.95387 c -1.59361,-0.80834 -1.69273,-2.98848 -0.19849,-4.36582 1.08534,-1.00043 2.47671,-1.29046 3.79053,-0.79014 0.87301,0.33246 1.3259,1.17878 1.24368,2.32414 -0.12506,1.74227 -1.50385,2.98556 -3.41206,3.07674 -0.76949,0.0368 -0.91905,0.011 -1.42366,-0.24492 z"
     id="path9"
     transform="scale(0.75)" />
  <path
     style="fill:#ffff00;fill-opacity:1;stroke-width:0.106043"
     d="m 167.75981,105.79484 c -1.37487,-0.4554 -1.9431,-1.23438 -1.82782,-2.50572 0.11731,-1.29367 1.17348,-2.5484 2.14513,-2.5484 0.95806,0 2.8174,1.70564 3.13168,2.8728 0.21598,0.80209 -0.22874,1.58702 -1.16907,2.06342 -0.47569,0.241 -1.71482,0.30507 -2.27992,0.1179 z"
     id="path10"
     transform="scale(0.75)" />
  <path
     style="fill:#a05a2c;fill-opacity:1;stroke-width:0.106043"
     d="m 150.52785,87.800887 c -7.43362,-0.526475 -13.55103,-2.074573 -19.06501,-4.824674 -6.24615,-3.115269 -11.17038,-6.438319 -14.61043,-9.859658 -2.23829,-2.226106 -3.74082,-4.262955 -4.91561,-6.663617 -1.69219,-3.457998 -2.38242,-6.723337 -2.37962,-11.257627 0.002,-3.313023 0.29592,-5.938979 1.10963,-9.915008 1.12792,-5.511321 2.58419,-8.586084 5.8348,-12.319553 1.15413,-1.325568 5.31389,-5.506055 7.35645,-7.393101 3.57181,-3.299858 5.12003,-4.560503 7.82785,-6.373891 0.91446,-0.612397 1.66273,-1.155732 1.66282,-1.20741 1.8e-4,-0.09762 -2.35375,-4.019473 -2.88732,-4.810522 l -0.30398,-0.450682 h 0.89454 0.89454 l 0.33134,0.821832 c 0.37485,0.929767 0.95917,1.762684 1.48531,2.117251 1.38287,0.931916 3.43239,0.469651 8.65241,-1.951536 l 2.01481,-0.934526 h 12.19493 12.19493 l 1.43158,0.490756 c 6.48758,2.22399 10.21986,4.663861 12.15789,7.947869 0.78845,1.336023 1.03345,2.008154 0.94225,2.584936 -0.0933,0.590035 -0.36184,0.979739 -1.66141,2.410902 -1.64091,1.807079 -2.75791,3.77932 -3.84533,6.789508 -1.55537,4.305614 -2.18692,8.485601 -1.7048,11.28338 0.68838,3.99464 3.21056,9.558438 4.96372,10.949705 0.81167,0.64412 2.49339,1.066392 5.32687,1.337548 3.02753,0.289727 3.39205,0.689347 3.81973,4.187569 0.43369,3.547269 -0.37094,7.279623 -2.44118,11.323753 -1.56991,3.06674 -3.93665,6.079658 -6.26418,7.974435 -4.32573,3.521463 -11.2509,6.170929 -18.98167,7.262102 -3.34014,0.47145 -8.98175,0.696563 -12.03586,0.480259 z m 15.10433,-2.807471 c 4.04892,-0.477495 7.53459,-1.654372 10.24895,-3.460391 1.22514,-0.815155 3.24984,-2.798771 3.99149,-3.910491 3.12805,-4.688908 3.33782,-10.698 0.60763,-17.406006 -1.56111,-3.835591 -4.89153,-8.972519 -6.8354,-10.543092 -2.36638,-1.911951 -4.94378,-1.998813 -10.86003,-0.365995 -2.09506,0.578213 -5.84896,1.747304 -7.06087,2.198994 -7.18701,2.678655 -13.02279,7.528534 -15.84795,13.17058 -0.82357,1.64472 -1.72477,3.969688 -2.08978,5.39128 -0.44048,1.715565 -0.45705,3.278759 -0.0482,4.5467 0.37097,1.150499 1.14011,2.301101 2.32984,3.485381 4.08471,4.065985 10.33844,6.510887 18.04207,7.053572 1.74806,0.123142 5.86115,0.03536 7.52227,-0.160532 z M 141.68429,55.032437 c 2.29796,-0.247589 2.43996,-0.282935 3.61546,-0.899892 3.55266,-1.864602 9.18231,-7.822972 11.21936,-11.874464 1.0414,-2.071249 1.47009,-4.341992 1.47141,-7.79415 0.002,-3.993152 -0.67341,-7.396882 -2.00816,-10.127094 -1.54966,-3.169784 -3.8983,-4.420227 -7.99954,-4.259051 -1.76138,0.06922 -2.92324,0.292024 -4.8067,0.921749 -2.54088,0.849535 -4.1185,1.751543 -5.70647,3.262707 -3.90537,3.716461 -7.01283,10.40172 -7.89662,16.988432 -0.34458,2.568089 -0.20086,5.936265 0.32897,7.709687 0.56362,1.886498 3.51039,4.573904 6.20402,5.657961 1.7009,0.684532 2.51056,0.744639 5.57827,0.414115 z"
     id="path11"
     transform="scale(0.75)" />
  <path
     style="fill:#784421;fill-opacity:1;stroke-width:0.106043"
     d="m 149.62648,87.694149 c -5.16393,-0.514847 -8.82992,-1.247754 -12.67212,-2.533413 -2.2265,-0.745023 -3.54364,-1.301479 -6.04798,-2.555117 -6.44497,-3.226258 -12.00239,-7.179149 -15.23455,-10.83607 -2.13095,-2.410994 -3.37841,-4.409619 -4.48333,-7.18302 -1.86846,-4.689921 -2.08175,-10.976852 -0.62621,-18.457883 1.09604,-5.633329 2.34335,-8.558071 5.19021,-12.170278 1.06837,-1.355581 7.07931,-7.421935 9.48412,-9.571546 2.75789,-2.465225 3.76392,-3.257966 6.9193,-5.452324 0.65614,-0.456303 1.19298,-0.897282 1.19298,-0.979954 0,-0.125079 -2.10977,-3.713667 -2.87181,-4.884761 l -0.22426,-0.344639 h 0.81115 0.81114 l 0.16033,0.39766 c 0.90376,2.241593 1.74229,2.997236 3.32258,2.994144 1.45068,-0.0028 3.03554,-0.5231 6.82121,-2.239195 l 2.3087,-1.046566 h 12.18567 12.18566 l 1.73019,0.621932 c 6.90913,2.483548 10.32298,4.895932 12.22147,8.636252 0.24955,0.491645 0.42794,1.010395 0.45915,1.335169 0.0652,0.678834 -0.1471,1.051139 -1.45766,2.555962 -2.16665,2.487817 -3.44497,4.955291 -4.67113,9.016482 -1.14796,3.802146 -1.46198,7.301385 -0.89835,10.010374 0.61492,2.955452 2.17452,6.734674 3.69293,8.948708 1.21079,1.765479 1.96636,2.091909 6.06202,2.618965 2.21807,0.285437 2.75962,0.443531 3.26241,0.952401 0.82237,0.832316 1.27959,4.722017 0.87265,7.423822 -0.97678,6.484998 -5.42863,13.251784 -11.01937,16.749385 -4.82587,3.019087 -11.81743,5.16168 -19.07529,5.845697 -2.01862,0.190245 -8.9931,0.289261 -10.41181,0.147813 z m 14.51348,-2.542148 c 4.53631,-0.293816 8.66632,-1.534399 11.67911,-3.5082 1.23423,-0.808596 3.76725,-3.385277 4.43286,-4.509268 3.33205,-5.626708 2.81397,-12.800656 -1.48259,-20.529762 -2.21253,-3.98013 -4.46773,-6.795384 -6.17061,-7.703011 -2.59876,-1.385121 -6.21815,-0.93054 -14.80695,1.859693 -5.74665,1.866907 -9.92762,4.304355 -13.51705,7.880251 -2.58435,2.574607 -4.12826,4.947779 -5.55353,8.53645 -1.24611,3.137538 -1.55892,4.953446 -1.17415,6.816219 0.29328,1.419856 0.9414,2.510302 2.36871,3.9853 2.78794,2.88107 6.65905,4.962286 11.46043,6.161434 2.06179,0.514935 3.63084,0.768906 6.46861,1.047037 0.83652,0.08199 4.82485,0.05909 6.29516,-0.03614 z m -22.13924,-30.11076 c 1.10978,-0.126852 2.0401,-0.292521 2.40108,-0.42758 3.4838,-1.303458 9.92779,-7.855912 12.16819,-12.373024 1.07282,-2.163001 1.426,-4.091108 1.42452,-7.776706 -0.001,-2.638226 -0.10949,-3.836336 -0.52827,-5.836806 -0.63558,-3.036045 -1.86528,-5.600145 -3.29828,-6.87736 -0.69345,-0.618057 -1.79147,-1.181161 -2.84479,-1.458908 -1.05406,-0.277939 -4.47724,-0.280122 -5.77934,-0.0037 -2.37343,0.503882 -5.3821,1.759495 -6.83976,2.854447 -4.68769,3.521242 -8.58904,11.598009 -9.28513,19.222505 -0.21056,2.306245 0.0371,5.550825 0.52081,6.823911 0.64408,1.695074 3.10669,4.017218 5.47699,5.16457 1.95466,0.946165 3.19551,1.075949 6.58398,0.688636 z"
     id="path12"
     transform="scale(0.75)" />
  <path
     style="fill:#552200;fill-opacity:1;stroke-width:0.106043"
     d="m 156.0951,81.857622 c -2.12067,-0.186515 -4.42523,-0.763348 -7.26394,-1.818174 -3.94581,-1.466205 -6.34324,-3.138624 -7.34631,-5.124694 -0.44526,-0.881624 -0.62619,-1.67405 -0.62619,-2.742662 0,-3.686705 2.14655,-7.988834 5.83583,-11.696216 4.47618,-4.49814 10.35055,-7.294055 15.81785,-7.528526 1.93894,-0.08315 2.23773,0.01088 3.81589,1.200924 1.87958,1.417333 2.291,1.554577 5.17535,1.726419 1.40583,0.08376 1.69662,0.132769 2.17388,0.366417 3.06673,1.501339 5.90738,7.865241 5.90573,13.230575 -0.001,3.301343 -0.82563,5.499882 -2.80089,7.467574 -1.18912,1.184573 -2.50011,2.068081 -4.56869,3.07897 -2.83396,1.384919 -4.02651,1.657696 -8.05926,1.843438 -2.65545,0.122305 -6.64543,0.120303 -8.05925,-0.004 z"
     id="path13"
     transform="scale(0.75)" />
  <path
     style="fill:#552200;fill-opacity:1;stroke-width:0.77333333;stroke:url(#linearGradient31);stroke-dasharray:none"
     d="m 147.98282,87.482112 c -5.63333,-0.708354 -10.37968,-1.914439 -14.36881,-3.651223 -1.53569,-0.668605 -4.63401,-2.24588 -6.25653,-3.185027 -4.42141,-2.55921 -7.83462,-5.067935 -10.45254,-7.682674 -3.93888,-3.934088 -6.015,-7.844598 -6.89965,-12.995948 -0.27749,-1.61582 -0.38942,-5.90802 -0.20904,-8.016325 0.35229,-4.117859 1.35195,-9.021918 2.3976,-11.76199 0.75703,-1.983742 1.83209,-3.883617 3.25611,-5.754298 1.29942,-1.706988 7.13538,-7.616433 10.31688,-10.446782 1.88815,-1.679759 3.18816,-2.725543 4.83823,-3.892092 2.05162,-1.450432 2.74383,-1.992295 2.74383,-2.147863 0,-0.161418 -0.89119,-1.733081 -2.13812,-3.770672 -0.45709,-0.746934 -0.83108,-1.379215 -0.83108,-1.405068 0,-0.02585 0.32301,-0.04701 0.71781,-0.04701 h 0.7178 l 0.45877,1.000121 c 0.83394,1.818015 1.58735,2.390322 3.1492,2.392214 1.46504,0.0018 2.89245,-0.467765 6.97957,-2.295905 l 2.21417,-0.990387 h 12.06978 12.06978 l 1.84111,0.678481 c 4.78502,1.763368 7.57339,3.274462 9.59863,5.20177 1.56826,1.49242 2.8779,3.552891 2.97088,4.674117 0.06,0.723387 -0.0956,1.03066 -1.1531,2.276818 -2.30468,2.715905 -3.40605,4.71745 -4.58487,8.332208 -1.08387,3.323609 -1.45296,5.391422 -1.45643,8.159584 -0.001,1.178884 0.0549,1.887428 0.21683,2.726721 0.68003,3.523843 2.91309,8.490032 4.52825,10.070578 0.90188,0.882547 1.722,1.150224 4.96317,1.619913 3.01198,0.436476 3.46282,0.615788 3.85801,1.534422 0.47394,1.101703 0.59502,2.019336 0.59542,4.512512 4.1e-4,2.563798 -0.0709,3.068796 -0.75134,5.321644 -1.32766,4.395634 -4.2917,8.899768 -7.83796,11.91049 -4.02108,3.413844 -10.85574,6.108403 -18.39823,7.253489 -2.85782,0.433868 -3.95871,0.501528 -8.85458,0.544196 -4.14978,0.03617 -4.8477,0.0178 -6.30955,-0.166018 z m 18.23937,-2.483043 c 3.65208,-0.516893 7.13314,-1.707639 9.48991,-3.24616 0.98239,-0.641308 3.2522,-2.831464 4.0992,-3.955337 1.06105,-1.407891 1.93971,-3.522415 2.38737,-5.745293 0.26446,-1.31314 0.2644,-4.864094 -1e-4,-6.282041 -0.75176,-4.030115 -2.35502,-7.794933 -5.11298,-12.006506 -1.6462,-2.51384 -3.38472,-4.375431 -4.65021,-4.979391 -1.15074,-0.549197 -1.91102,-0.671344 -3.77421,-0.606362 -1.86391,0.06501 -3.44285,0.355805 -6.39623,1.178008 -8.09226,2.252838 -12.75048,4.507673 -16.8425,8.152696 -2.00551,1.786435 -3.74216,3.853386 -4.92207,5.858235 -1.16232,1.974935 -2.57708,5.509146 -2.95656,7.385712 -0.33518,1.657555 -0.13616,3.554112 0.50573,4.819253 1.07576,2.12027 4.07424,4.751912 7.2822,6.391284 3.23716,1.654288 6.68978,2.584563 11.98285,3.22866 0.20413,0.02484 2.01746,0.03047 4.02963,0.0125 2.65575,-0.02371 3.99272,-0.07997 4.87797,-0.205261 z M 141.94154,55.08502 c 2.39435,-0.295701 2.93685,-0.485152 4.57743,-1.598515 3.59441,-2.439318 8.13048,-7.460177 9.98653,-11.053831 1.03851,-2.010731 1.40469,-3.721119 1.51311,-7.067379 0.10698,-3.302201 -0.19449,-5.920471 -0.98013,-8.512371 -0.96396,-3.180207 -2.33468,-5.106081 -4.31605,-6.064112 -1.29819,-0.627696 -1.71799,-0.694082 -4.36846,-0.690806 -2.10049,0.0026 -2.42804,0.02768 -3.28733,0.251759 -2.18755,0.570445 -4.51604,1.540774 -5.99817,2.499559 -0.42604,0.275604 -1.28437,1.009356 -1.90739,1.630563 -1.83209,1.826738 -3.19013,3.803734 -4.5637,6.643694 -1.53319,3.170002 -2.45691,6.094592 -3.03827,9.619518 -0.25527,1.547729 -0.25327,5.670374 0.003,7.082233 0.22316,1.227415 0.69104,2.226549 1.49321,3.188715 1.56451,1.876567 4.31834,3.655039 6.3758,4.117615 0.68639,0.154321 3.08349,0.12953 4.50999,-0.04664 z"
     id="path14"
     transform="scale(0.75)" />
  <path
     style="fill:#784421;fill-opacity:1;stroke-width:1.84;stroke:url(#linearGradient32);stroke-dasharray:none"
     d="m 155.82999,81.799093 c -2.75393,-0.334428 -7.09945,-1.6755 -9.7616,-3.012529 -1.89427,-0.951374 -3.6622,-2.414129 -4.3629,-3.609779 -0.5707,-0.97382 -0.75889,-1.739597 -0.75387,-3.067638 0.005,-1.36154 0.19045,-2.389543 0.68496,-3.799968 1.74704,-4.982771 6.46596,-10.007017 12.05279,-12.832628 3.10447,-1.570129 5.81336,-2.31838 8.77916,-2.42499 2.00619,-0.07211 2.21543,-0.0086 3.88245,1.178923 1.92748,1.373041 2.1445,1.44558 5.08195,1.698608 2.12785,0.183291 2.51318,0.339459 3.6556,1.481565 1.68129,1.68083 3.14803,4.610623 3.90776,7.805704 0.67112,2.822422 0.65624,6.168631 -0.0364,8.181754 -0.91351,2.655173 -2.94975,4.641237 -6.64026,6.476636 -3.45085,1.716211 -4.43535,1.883291 -11.3996,1.934627 -2.5954,0.01913 -4.88593,0.0145 -5.09006,-0.01028 z"
     id="path15"
     transform="scale(0.75)" />
  <path
     style="fill:#9a329a;fill-opacity:0.98387098;stroke-width:0.106043;stroke:url(#linearGradient24)"
     d="m 142.55037,49.139434 c -2.3129,-0.496616 -6.62228,-2.525905 -7.59935,-3.578536 -0.22836,-0.246021 -0.24651,-0.333753 -0.18225,-0.880568 0.35005,-2.978344 3.87334,-12.214492 5.667,-14.855769 0.7754,-1.141827 1.98199,-2.024268 3.43459,-2.51189 1.06855,-0.358701 1.87658,-0.434506 2.95332,-0.277066 1.5745,0.230222 2.23713,0.594643 2.70917,1.489925 0.42708,0.810013 0.27177,6.321927 -0.28834,10.233137 -0.89191,6.228077 -2.53359,9.657891 -4.96891,10.381104 -0.67568,0.200654 -0.78925,0.200633 -1.72523,-3.37e-4 z m 0.81944,-1.468454 c 1.22841,-0.601003 2.35318,-1.976441 2.86884,-3.508171 0.65737,-1.952676 0.0186,-4.182504 -1.3841,-4.83195 -0.77851,-0.36044 -2.2634,-0.221909 -3.29946,0.307819 -0.84311,0.431074 -1.43601,1.819431 -1.58023,3.700283 -0.1604,2.091998 0.47127,4.211464 1.37163,4.602219 0.38261,0.166055 1.41286,0.02847 2.02332,-0.2702 z m -5.38325,-2.462572 c 0.77348,-0.36704 0.95862,-1.504338 0.35489,-2.180031 -0.54362,-0.608409 -1.81943,-0.464821 -2.18708,0.246145 -0.208,0.402225 -0.19505,1.102856 0.0266,1.441197 0.41061,0.626666 1.11701,0.819424 1.80555,0.492689 z"
     id="path16"
     transform="scale(0.75)" />
  <path
     style="fill:#2ad5d5;fill-opacity:0.56774193;stroke-width:0.106043;stroke:url(#linearGradient25)"
     d="m 141.1069,47.546795 c -1.19886,-1.205414 -1.41428,-4.593839 -0.42543,-6.691793 0.36512,-0.77465 0.74074,-1.092665 1.65122,-1.398 2.23757,-0.750387 3.84234,0.366781 4.02943,2.805118 0.11617,1.51399 -0.4853,2.997521 -1.72814,4.262465 -0.8558,0.871017 -1.67234,1.312932 -2.56245,1.3868 -0.53015,0.044 -0.57519,0.02698 -0.96463,-0.36459 z"
     id="path17"
     transform="scale(0.75)" />
  <path
     style="fill:#ffff00;fill-opacity:0.567742;stroke-width:0.0530214;stroke:url(#linearGradient26)"
     d="m 136.89367,45.203603 c -0.4364,-0.189883 -0.86554,-0.785273 -0.86667,-1.202404 -10e-4,-0.449906 0.27142,-0.90111 0.67829,-1.122556 0.67912,-0.369622 1.45529,-0.152218 1.77953,0.498443 0.43831,0.879584 -0.17286,1.907887 -1.12996,1.901142 -0.16195,-0.0011 -0.36949,-0.03472 -0.46119,-0.07462 z"
     id="path18"
     transform="scale(0.75)" />
  <ellipse
     style="fill:#3a34ad;fill-opacity:1;stroke:url(#linearGradient29);stroke-width:0.1;stroke-dasharray:none"
     id="path20"
     cx="108.41255"
     cy="20.406818"
     rx="1.0789915"
     ry="0.9562819" />
  <path
     style="fill:#ffff00;fill-opacity:1;stroke:none;stroke-width:0.0289937;stroke-dasharray:none"
     d="m 184.25902,50.106288 c -0.11353,-0.144335 -0.15547,-0.41614 -0.15547,-1.007692 0,-0.817978 0.16889,-1.601092 0.47743,-2.213762 0.22596,-0.448707 0.83077,-1.009814 1.33949,-1.242717 1.04242,-0.477236 1.97825,-0.07679 1.98111,0.847732 9.3e-4,0.299963 -0.10712,0.579025 -0.39516,1.020576 -0.44633,0.68422 -1.31602,1.590277 -2.07191,2.158549 -0.68641,0.516045 -1.01686,0.638979 -1.17549,0.437314 z"
     id="path32"
     transform="scale(0.75)" />
  <path
     style="fill:#ffff00;fill-opacity:1;stroke:url(#linearGradient37);stroke-width:0.16266667;stroke-dasharray:none"
     d="m 187.3091,52.651297 c -0.18803,-0.09895 -0.30662,-0.233982 -0.41787,-0.475765 -0.0983,-0.213548 -0.10703,-0.270874 -0.11867,-0.774255 -0.0141,-0.609933 0.0526,-1.168223 0.18022,-1.509418 0.0892,-0.23847 0.28814,-0.440156 0.43411,-0.440156 0.24179,0 0.64606,0.335486 0.9949,0.82561 0.31834,0.447276 0.35178,0.536277 0.3519,0.936505 9e-5,0.323393 -0.011,0.379593 -0.12044,0.610652 -0.22125,0.467115 -0.72707,0.891253 -1.05844,0.88752 -0.0733,-8.26e-4 -0.18385,-0.02814 -0.24571,-0.06069 z"
     id="path33"
     transform="scale(0.75)" />
  <path
     style="fill:#00ffff;fill-opacity:1;stroke:url(#linearGradient38);stroke-width:0.296;stroke-dasharray:none"
     d="m 184.27183,50.074918 c -0.10729,-0.163752 -0.13223,-0.337911 -0.1334,-0.931653 -0.002,-1.24381 0.27804,-2.154704 0.85107,-2.763841 0.8336,-0.886121 1.95115,-1.173433 2.55473,-0.656796 0.22815,0.195288 0.32528,0.425137 0.32582,0.771044 4e-4,0.25974 -0.0135,0.313155 -0.15685,0.602441 -0.24013,0.484604 -0.67382,1.037128 -1.32012,1.681827 -1.0863,1.083618 -1.92503,1.59644 -2.12125,1.296978 z"
     id="path34"
     transform="scale(0.75)" />
  <ellipse
     style="fill:#00ffff;fill-opacity:1;stroke:url(#linearGradient36);stroke-width:0.08;stroke-dasharray:none"
     id="path35"
     cx="137.02321"
     cy="26.37549"
     rx="1.1528733"
     ry="1.012279" />
  <path
     style="fill:#ffff00;fill-opacity:1;stroke:none;stroke-width:0.00862482;stroke-dasharray:none"
     d="m 168.05143,105.82985 c -0.59079,-0.10269 -1.30905,-0.49291 -1.65829,-0.90092 -0.73882,-0.86315 -0.52286,-2.52764 0.45679,-3.52067 0.87812,-0.89012 1.64711,-0.82368 2.88562,0.24933 0.64476,0.55861 1.1783,1.25965 1.39465,1.83251 0.30197,0.79959 -0.15581,1.69595 -1.09047,2.13523 -0.4857,0.22828 -1.34384,0.31655 -1.9883,0.20452 z"
     id="path38"
     transform="scale(0.75)" />
  <path
     style="fill:#800080;fill-opacity:0.238636;stroke-width:0.75"
     id="path50"
     d="m 130.26803,15.520788 c -0.77507,-0.317953 -1.45654,-0.826064 -2.1329,-1.311327 -0.99545,-0.69127 -1.931,-1.46234 -2.90024,-2.188532 -0.43531,-0.302307 -0.85343,-0.626416 -1.24905,-0.978758 0,0 -0.002,-9.75e-4 -0.002,-9.75e-4 v 0 c 0.3957,0.352383 0.81389,0.676533 1.24928,0.978869 0.96928,0.726187 1.90484,1.497272 2.90031,2.188566 0.67768,0.486228 1.3606,0.995265 2.13721,1.313781 z" />
  <path
     style="fill:#800080;fill-opacity:0.238636;stroke-width:0.75"
     id="path49"
     d="m 130.26803,15.520788 c -0.77507,-0.317953 -1.45654,-0.826064 -2.1329,-1.311327 -0.99545,-0.69127 -1.931,-1.46234 -2.90024,-2.188532 -0.43531,-0.302307 -0.85343,-0.626416 -1.24905,-0.978758 0,0 -0.002,-9.75e-4 -0.002,-9.75e-4 v 0 c 0.3957,0.352383 0.81389,0.676533 1.24928,0.978869 0.96928,0.726187 1.90484,1.497272 2.90031,2.188566 0.67768,0.486228 1.3606,0.995265 2.13721,1.313781 z" />
  <path
     style="font-variation-settings:normal;opacity:1;vector-effect:none;fill:#552200;fill-opacity:1;stroke-width:0.58;stroke-linecap:butt;stroke-linejoin:miter;stroke-miterlimit:4;stroke-dasharray:none;stroke-dashoffset:0;stroke-opacity:1;-inkscape-stroke:none;stop-color:#000000;stop-opacity:1"
     id="path51"
     d="m 116.53835,8.4446677 c 0.0205,0.00816 0.0404,0.01785 0.0614,0.02448 0.061,0.01923 0.20853,0.0543 0.26359,0.067222 0.19025,0.044655 0.3816,0.084193 0.57248,0.1260323 0,0 -5e-5,-3.45e-5 -5e-5,-3.45e-5 v 0 c -0.19087,-0.041843 -0.38222,-0.081377 -0.57247,-0.1260315 -0.0552,-0.01296 -0.20253,-0.047963 -0.2636,-0.067223 -0.021,-0.0066 -0.0409,-0.016282 -0.0613,-0.024427 z" />
  <path
     style="font-variation-settings:normal;opacity:1;vector-effect:none;fill:#552200;fill-opacity:1;stroke-width:0.58;stroke-linecap:butt;stroke-linejoin:miter;stroke-miterlimit:4;stroke-dasharray:none;stroke-dashoffset:0;stroke-opacity:1;-inkscape-stroke:none;stop-color:#000000;stop-opacity:1"
     id="path52"
     d="m 117.48803,8.7883192 c 0.17297,0 0.34593,0 0.51891,0 0.10172,0.00427 0.2016,0.020603 0.3011,0.04077 0,0 -4e-5,-3.37e-5 -4e-5,-3.37e-5 v 0 c -0.0995,-0.020175 -0.19939,-0.036525 -0.30112,-0.04077 -0.17296,0 -0.34593,0 -0.51889,0 z" />
  <path
     style="font-variation-settings:normal;opacity:1;vector-effect:none;fill:#552200;fill-opacity:1;stroke-width:0.58;stroke-linecap:butt;stroke-linejoin:miter;stroke-miterlimit:4;stroke-dasharray:none;stroke-dashoffset:0;stroke-opacity:1;-inkscape-stroke:none;stop-color:#000000;stop-opacity:1"
     id="path53"
     d="m 119.03948,9.5780145 c -0.14163,-0.012818 -0.26603,-0.076757 -0.39176,-0.13884 -0.2457,-0.1359547 -0.50096,-0.2537632 -0.74638,-0.3901845 -0.12725,-0.070733 -0.25195,-0.1459417 -0.37808,-0.2186565 -0.20929,-0.123564 -0.41639,-0.2511952 -0.64411,-0.3378945 0,0 4e-5,3.53e-5 4e-5,3.53e-5 v 0 c 0.22772,0.0867 0.43482,0.2143297 0.64412,0.3378952 0.12612,0.072712 0.25083,0.147924 0.37807,0.2186558 0.24616,0.1368314 0.50214,0.255138 0.74842,0.391809 0.12579,0.062107 0.25023,0.1259992 0.39191,0.138885 z" />
  <path
     style="opacity:1;fill:#803300;fill-opacity:1;stroke-width:0.212086"
     d=""
     id="path54"
     transform="scale(0.75)" />
  <path
     style="opacity:1;fill:#784421;fill-opacity:1;stroke-width:1.14533333;stroke:url(#linearGradient55);stroke-dasharray:none"
     d="m 126.61518,18.038464 c -0.98348,-0.243435 -3.76522,-1.478652 -4.18452,-1.858113 -0.20643,-0.186815 -0.37532,-0.498266 -0.37532,-0.692114 0,-0.431669 3.41338,-4.353736 3.78906,-4.353736 0.43246,0 2.9647,3.509476 3.33574,4.623063 0.41097,1.233433 0.27639,1.902853 -0.449,2.233363 -0.60055,0.273632 -1.15245,0.286031 -2.11596,0.04754 z"
     id="path55"
     transform="scale(0.75)" />
  <path
     style="fill:#552200;fill-opacity:1;stroke-width:1.08266667;stroke:url(#linearGradient19);stroke-dasharray:none"
     d="m 151.64349,98.390801 -0.87322,-0.08727 4.1725,-2.200651 c 7.86566,-4.148498 9.68846,-5.080581 9.77212,-4.996925 0.13558,0.135579 -0.22647,1.304601 -0.85694,2.766999 -1.28877,2.989318 -2.71432,4.098502 -5.79246,4.506965 -1.12108,0.148765 -4.97688,0.155296 -6.422,0.01088 z"
     id="path19"
     transform="scale(0.75)" />
  <path
     style="fill:#552200;fill-opacity:1;stroke-width:0.114809;stroke-dasharray:none"
     d="m 103.48992,182.30015 c -1.60882,-0.98106 -1.97602,-10.74208 -0.49901,-13.26452 1.04861,-1.7908 9.19608,-8.26708 11.13772,-8.85318 l 0.2386,-0.072 -6e-4,1.51826 c -9.7e-4,2.43109 -0.30694,5.49544 -1.33747,13.39506 -0.33669,2.58088 -0.53953,3.80841 -0.66587,4.02963 -0.62436,1.09317 -3.88056,2.75809 -6.42015,3.28265 -1.10201,0.22763 -2.04369,0.21386 -2.45322,-0.0359 z"
     id="path21"
     transform="scale(0.75)" />
  <path
     style="fill:#552200;fill-opacity:1;stroke-width:0.11466667;stroke-dasharray:none"
     d="m 106.5046,208.65121 c -1.64789,-0.58169 -3.64065,-1.98908 -4.62357,-3.2654 -0.95127,-1.23522 -1.20601,-2.14311 -0.98011,-3.49317 0.5927,-3.54219 3.91795,-8.0218 7.50642,-10.11229 0.69026,-0.40212 3.06857,-1.23392 4.85568,-1.69825 2.3456,-0.60944 2.65806,-0.31067 2.57307,2.46038 -0.048,1.56599 -0.21861,1.97203 -0.99102,2.35883 -0.45577,0.22825 -0.71793,0.26869 -2.16832,0.33453 -2.17591,0.0988 -3.01273,0.40398 -3.91358,1.4274 -0.58761,0.66757 -0.7891,1.32355 -0.74262,2.4178 0.032,0.75471 0.0915,0.98432 0.43484,1.67875 0.51417,1.04003 1.15277,1.67644 3.00257,2.99232 0.81273,0.57814 1.51674,1.08484 1.56448,1.126 0.0948,0.0817 -2.97451,2.89626 -3.71119,3.40311 -0.97226,0.66893 -1.69125,0.76371 -2.80665,0.36999 z"
     id="path22"
     transform="scale(0.75)" />
  <path
     style="fill:#552200;fill-opacity:1;stroke-width:0.54533333;stroke-dasharray:none;stroke:url(#linearGradient23)"
     d="m 103.5772,182.26423 c -0.52525,-0.25331 -1.06992,-1.97127 -1.30373,-4.11222 -0.15446,-1.41432 -0.15419,-4.85194 4.8e-4,-6.09746 0.15505,-1.24862 0.39629,-2.21408 0.70841,-2.8351 0.59674,-1.18735 5.05812,-5.05625 8.68078,-7.52796 1.18666,-0.80965 2.3319,-1.46008 2.57154,-1.4605 0.15962,-2.7e-4 0.16027,0.0804 0.0228,2.80991 -0.12153,2.41274 -0.32925,4.42939 -1.01581,9.86199 -0.55596,4.3992 -0.80711,5.9033 -1.04683,6.26915 -0.3983,0.60789 -2.23313,1.71246 -4.0233,2.42204 -1.72793,0.68491 -3.90518,1.00249 -4.59433,0.67015 z"
     id="path23"
     transform="scale(0.75)" />
  <path
     style="fill:#ffff00;fill-opacity:1;stroke-width:0.59066667;stroke-dasharray:none;stroke:url(#linearGradient33)"
     d="m 106.5588,208.5947 c -2.15525,-0.77602 -4.50628,-2.70131 -5.31941,-4.35614 -0.25622,-0.52145 -0.28562,-0.69559 -0.27753,-1.64367 0.0107,-1.25051 0.26605,-2.12801 1.11098,-3.81754 1.22499,-2.4495 3.59935,-5.14208 5.78755,-6.5632 1.74015,-1.13014 6.23685,-2.51521 7.29969,-2.24846 0.49181,0.12344 0.60962,0.61836 0.56854,2.38852 -0.0409,1.76369 -0.13957,2.04509 -0.85859,2.4492 -0.33994,0.19105 -0.7334,0.26114 -2.11414,0.3766 -2.4751,0.20696 -3.3134,0.51743 -4.10883,1.52174 -0.51496,0.65019 -0.66864,1.2321 -0.6261,2.37072 0.0318,0.8515 0.0826,1.07611 0.37976,1.67923 0.18867,0.38293 0.54225,0.92256 0.78573,1.19917 0.367,0.41694 3.00139,2.49053 3.5643,2.80555 0.14088,0.0788 0.1429,0.11893 0.0149,0.29595 -0.20777,0.28728 -2.13001,2.06858 -2.96597,2.7485 -1.23072,1.00101 -2.08457,1.21015 -3.24084,0.79383 z"
     id="path24"
     transform="scale(0.75)" />
  <path
     style="fill:#ffff00;fill-opacity:1;stroke-width:0.062636;stroke-dasharray:none"
     d=""
     id="path36"
     transform="scale(0.75)" />
  <path
     style="fill:#ffff00;fill-opacity:1;stroke-width:0.46266667;stroke-dasharray:none;stroke:url(#linearGradient39)"
     d="m 107.63852,188.97649 c -0.0951,-0.15394 0.43718,-0.47841 1.67228,-1.01932 2.0429,-0.89467 2.90747,-1.6085 2.47257,-2.04144 -0.38998,-0.38822 -2.35599,-0.15291 -4.25591,0.50939 -2.31413,0.80669 -4.4988,0.85865 -3.80566,0.0905 0.69721,-0.77266 5.28003,-2.32477 7.36514,-2.49441 0.63714,-0.0518 0.88109,-0.0279 1.18473,0.11617 0.94659,0.44918 0.95476,2.23462 0.0152,3.33222 -0.4783,0.55879 -1.82794,1.22414 -2.92575,1.44235 -0.92277,0.18342 -1.63274,0.21002 -1.72265,0.0645 z"
     id="path37"
     transform="scale(0.75)" />
  <path
     style="fill:#552200;fill-opacity:1;stroke-width:0.44933333;stroke-dasharray:none;stroke:url(#linearGradient40)"
     d="m 106.94423,208.33702 c -0.65927,-0.17814 -2.19852,-1.01343 -2.99041,-1.62278 -0.91667,-0.70535 -1.76754,-1.60397 -2.20569,-2.32946 -0.33485,-0.55443 -0.37472,-0.70426 -0.40765,-1.5318 -0.0436,-1.09543 0.12798,-1.8518 0.73299,-3.23131 0.78243,-1.78406 2.13875,-3.66591 3.82766,-5.31075 1.1999,-1.16859 1.87398,-1.67292 2.97526,-2.22602 1.75802,-0.88293 5.53359,-1.97935 6.14631,-1.78488 0.10581,0.0336 0.22828,0.1891 0.27216,0.34561 0.11971,0.42697 0.0639,2.81985 -0.0756,3.24261 -0.18873,0.57184 -0.71125,0.76508 -2.60173,0.96219 -2.41618,0.25191 -3.16239,0.50141 -3.96726,1.32648 -0.76567,0.78488 -0.91071,1.21747 -0.91071,2.71623 0,1.28103 4e-4,1.28306 0.41451,2.09893 0.22799,0.44916 0.5864,0.99355 0.79647,1.20974 0.4244,0.43676 2.37657,2.01841 3.02,2.4468 l 0.41344,0.27527 -1.15197,1.0975 c -1.39943,1.33327 -2.38205,2.0841 -3.00764,2.29819 -0.5486,0.18775 -0.645,0.18906 -1.28013,0.0174 z"
     id="path39"
     transform="scale(0.75)" />
</svg>
